inDegrees=yes
name=ik_S53_A06_T01
DataType=double
version=3
OpenSimVersion=4.3-2021-08-27-4bc7ad9
endheader
time	pelvis_tilt	pelvis_list	pelvis_rotation	pelvis_tx	pelvis_ty	pelvis_tz	hip_flexion_r	hip_adduction_r	hip_rotation_r	knee_angle_r	knee_angle_r_beta	ankle_angle_r	subtalar_angle_r	mtp_angle_r	hip_flexion_l	hip_adduction_l	hip_rotation_l	knee_angle_l	knee_angle_l_beta	ankle_angle_l	subtalar_angle_l	mtp_angle_l	lumbar_extension	lumbar_bending	lumbar_rotation	arm_flex_r	arm_add_r	arm_rot_r	elbow_flex_r	pro_sup_r	wrist_flex_r	wrist_dev_r	arm_flex_l	arm_add_l	arm_rot_l	elbow_flex_l	pro_sup_l	wrist_flex_l	wrist_dev_l
7.639999999999925	-5.266649715711774	-0.788928648733443	22.19148799444244	0	0.9399999999999999	0	40.34915727534413	-11.51713314081503	-10.61230805897067	54.60801927534016	0.9530897343472137	0	0	0	40.34915727534413	-11.51713314081503	-10.61230805897067	54.60801927534016	0.9530897343472137	0	0	0	-4.609172163596772	-0.634437508358046	-1.448263952522661	23.43519999648773	-2.854234760750223	3.327468637346239	44.00617073804062	123.5983305215182	0	2.694034605743505e-36	49.48531357915172	-5.589366583755508	-5.119721066893674	37.10727742543233	124.7498426169303	0	2.694034605743505e-36
7.659999999999925	-5.276497871584997	-0.7874530072708874	22.16979796445728	0	0.9399999999999999	0	40.35062468764256	-11.51548373348114	-10.61187989719226	54.60810261883478	0.953091188965605	0	0	0	40.35062468764256	-11.51548373348114	-10.61187989719226	54.60810261883478	0.953091188965605	0	0	0	-4.618342637806784	-0.6256714143810116	-1.483467510111057	23.36781369927516	-2.839149312246796	3.42200856709532	44.09202045326563	123.5798898095799	0	-5.38806921148701e-36	49.4896509944357	-5.663391456592922	-5.133355382469761	36.55600746279884	124.7549407705896	0	-5.38806921148701e-36
7.679999999999924	-5.297951153311427	-0.7865635097650037	22.12775307810617	0	0.9399999999999999	0	40.35203876055748	-11.51388128460217	-10.61146508961076	54.60818232522269	0.9530925801045089	0	0	0	40.35203876055748	-11.51388128460217	-10.61146508961076	54.60818232522269	0.9530925801045089	0	0	0	-4.637353246094356	-0.6207907997743012	-1.430928278175823	23.35571761640996	-2.870622630841481	3.441675158235646	44.17230847049059	123.5091504111337	0	0	49.69971839198234	-5.453748849592589	-4.853833171510675	36.06444439405626	124.6620245654503	0	0
7.699999999999924	-5.313291113135231	-0.7839163178609717	22.06936412430328	0	0.9399999999999999	0	40.35254799936685	-11.51331089961954	-10.61131684093374	54.60821133848628	0.9530930864814852	0	0	0	40.35254799936685	-11.51331089961954	-10.61131684093374	54.60821133848628	0.9530930864814852	0	0	0	-4.650821476468682	-0.6110605299438048	-1.445954034453586	23.33612491925181	-2.863351689233175	3.538407650216223	44.1993536506452	123.5068907693931	0	0	49.77327262488954	-5.431906363290422	-4.807030728996432	36.03038273485276	124.6135496735221	0	0
7.719999999999923	-5.352161671715413	-0.7793074053542255	22.01659014552574	0	0.9399999999999999	0	40.35416677068977	-11.51148545397677	-10.61084342840245	54.60830292466607	0.9530946849618719	0	0	0	40.35416677068977	-11.51148545397677	-10.61084342840245	54.60830292466607	0.9530946849618719	0	0	0	-4.685135707056094	-0.592899922392834	-1.430083714558327	23.37436422196413	-2.891365355876508	3.598892107465503	44.29510393148214	123.4444042202226	0	0	49.93045028890871	-5.39910159677201	-4.710812810415304	35.5950349992285	124.41263821152	0	0
7.739999999999923	-5.379971289154356	-0.7798750402550434	21.96821467531739	0	0.9399999999999999	0	40.35582526421736	-11.50961340538823	-10.6103580236718	54.60839660890043	0.9530963200602186	0	0	0	40.35582526421736	-11.50961340538823	-10.6103580236718	54.60839660890043	0.9530963200602186	0	0	0	-4.711189424169246	-0.5832544527031192	-1.420302916836733	23.40438596835344	-2.89729986337274	3.663548519403432	44.34076922176906	123.4145628382679	0	0	50.0483308948907	-5.374816983408561	-4.599819651934336	35.24746454095621	124.1920197971187	0	0
7.759999999999923	-5.409650942706731	-0.7744937858343792	21.92908744791051	0	0.9399999999999999	0	40.35732283833292	-11.5079238883079	-10.60991980474499	54.60848118479499	0.9530977961880466	0	0	0	40.35732283833292	-11.5079238883079	-10.60991980474499	54.60848118479499	0.9530977961880466	0	0	0	-4.736753602584468	-0.5675839579366274	-1.409157414791438	23.45980535822548	-2.919301366818621	3.703306606076568	44.34153743970854	123.4108492582813	0	0	50.14582414279042	-5.347260143995766	-4.497064972736933	34.89297236895161	124.0317009006082	0	0
7.779999999999922	-5.422459544722482	-0.7798271202951634	21.93750829020358	0	0.9399999999999999	0	40.35956801841794	-11.50540079155824	-10.60926443401276	54.60860838560492	0.9531000162609911	0	0	0	40.35956801841794	-11.50540079155824	-10.60926443401276	54.60860838560492	0.9531000162609911	0	0	0	-4.751162922964044	-0.5650336502851331	-1.431181408875862	23.3987337702648	-2.919281444267687	3.876487133226906	44.48324210758813	123.2975647182508	0	0	50.22965604784606	-5.354783828546718	-4.35120329023104	34.5348614865761	123.8526071216011	0	0
7.799999999999922	-5.466538994850674	-0.7682358068825648	21.89653080532813	0	0.9399999999999999	0	40.3607725520879	-11.50404106059818	-10.60891172309177	54.6086762763594	0.9531012011781883	0	0	0	40.3607725520879	-11.50404106059818	-10.60891172309177	54.6086762763594	0.9531012011781883	0	0	0	-4.787955198796534	-0.5368568634945038	-1.436304655858937	23.4682109403319	-2.949854718682384	3.944905527553922	44.48485743727128	123.2701149394313	0	0	50.3107519971101	-5.335282182489074	-4.290378445309169	34.50171743074483	123.7577855326644	0	0
7.819999999999921	-5.483666849134799	-0.7668673071318037	21.85628791558388	0	0.9399999999999999	0	40.36230371876206	-11.50233108976519	-10.60846643254448	54.60876336636213	0.9531027211854817	0	0	0	40.36230371876206	-11.50233108976519	-10.60846643254448	54.60876336636213	0.9531027211854817	0	0	0	-4.803353707535518	-0.5300477363118732	-1.420850576195887	23.49587046526651	-2.951206098981334	3.982924326477431	44.48163377662249	123.2067950223666	0	0	50.36578857625874	-5.348454159669673	-4.177867832821025	33.95139829552037	123.6076921883198	0	0
